<?xml version="1.0" standalone="no"?>
<!DOCTYPE svg PUBLIC "-//W3C//DTD SVG 20010904//EN"
 "http://www.w3.org/TR/2001/REC-SVG-20010904/DTD/svg10.dtd">
<svg version="1.0" xmlns="http://www.w3.org/2000/svg"
 width="394.000000pt" height="222.000000pt" viewBox="0 0 394.000000 222.000000"
 preserveAspectRatio="xMidYMid meet">

<g transform="translate(0.000000,222.000000) scale(0.100000,-0.100000)"
fill="#000000" stroke="none">
<path d="M3643 2190 c-12 -5 -25 -20 -29 -34 -7 -28 6 -55 53 -113 28 -34 34
-49 31 -79 -4 -47 -33 -70 -110 -86 -60 -13 -158 -3 -458 43 -421 65 -774 -44
-836 -259 -21 -72 -14 -129 32 -262 63 -180 49 -276 -55 -373 -60 -56 -116
-85 -266 -137 -201 -69 -353 -164 -530 -332 -190 -179 -258 -353 -196 -495
l23 -53 1319 0 1319 0 0 1079 c0 1020 -1 1080 -17 1085 -77 23 -239 32 -280
16z"/>
<path d="M0 378 l0 -368 578 0 577 1 -35 29 c-68 58 -206 145 -282 177 -87 38
-201 63 -291 63 -124 1 -251 42 -339 112 -51 40 -124 153 -170 262 l-37 91 -1
-367z"/>
</g>
</svg>
